<svg width="180" height="180" viewBox="0 0 180 180" fill="none" xmlns="http://www.w3.org/2000/svg">
<circle cx="91" cy="90" r="24.5" stroke="white" stroke-opacity="0.9"/>
<circle cx="91" cy="90" r="64.5" stroke="white" stroke-opacity="0.15"/>
<circle cx="91" cy="90" r="44.5" stroke="white" stroke-opacity="0.5"/>
<path d="M43 56L46.172 52.828C46.7026 52.2979 47.422 52.0001 48.172 52H49C49.5304 52 50.0391 52.2107 50.4142 52.5858C50.7893 52.9609 51 53.4696 51 54C51 54.5304 50.7893 55.0391 50.4142 55.4142C50.0391 55.7893 49.5304 56 49 56H33C32.4696 56 31.9609 55.7893 31.5858 55.4142C31.2107 55.0391 31 54.5304 31 54C31 53.4696 31.2107 52.9609 31.5858 52.5858C31.9609 52.2107 32.4696 52 33 52H36.657C38.157 52 39.596 52.596 40.657 53.657L43 56Z" stroke="white" stroke-width="2" stroke-linecap="round" stroke-linejoin="round"/>
<path d="M32 56H50V58C50 58.7956 49.6839 59.5587 49.1213 60.1213C48.5587 60.6839 47.7956 61 47 61H35C34.2044 61 33.4413 60.6839 32.8787 60.1213C32.3161 59.5587 32 58.7956 32 58V56Z" fill="white" stroke="white" stroke-width="2" stroke-linecap="round" stroke-linejoin="round"/>
<path fill-rule="evenodd" clip-rule="evenodd" d="M34.467 45.554C36.27 44.457 38.58 44 41 44C43.42 44 45.73 44.457 47.533 45.554C49.377 46.675 50.642 48.44 50.935 50.882C51.082 52.106 50.067 53 49 53H33C31.933 53 30.918 52.106 31.065 50.882C31.358 48.44 32.623 46.675 34.467 45.554ZM36 47C35.7348 47 35.4804 47.1054 35.2929 47.2929C35.1054 47.4804 35 47.7348 35 48C35 48.2652 35.1054 48.5196 35.2929 48.7071C35.4804 48.8946 35.7348 49 36 49C36.2652 49 36.5206 48.8946 36.7081 48.7071C36.8956 48.5196 37.001 48.2652 37.001 48C37.001 47.7348 36.8956 47.4804 36.7081 47.2929C36.5206 47.1054 36.2652 47 36 47ZM44 48C44 47.7348 44.1054 47.4804 44.2929 47.2929C44.4804 47.1054 44.7348 47 45 47C45.2652 47 45.5206 47.1054 45.7081 47.2929C45.8956 47.4804 46.001 47.7348 46.001 48C46.001 48.2652 45.8956 48.5196 45.7081 48.7071C45.5206 48.8946 45.2662 49 45.001 49C44.7358 49 44.4804 48.8946 44.2929 48.7071C44.1054 48.5196 44 48.2652 44 48ZM40 49C39.7348 49 39.4804 49.1054 39.2929 49.2929C39.1054 49.4804 39 49.7348 39 50C39 50.2652 39.1054 50.5196 39.2929 50.7071C39.4804 50.8946 39.7348 51 40 51H40.001C40.2662 51 40.5206 50.8946 40.7081 50.7071C40.8956 50.5196 41.001 50.2652 41.001 50C41.001 49.7348 40.8956 49.4804 40.7081 49.2929C40.5206 49.1054 40.2662 49 40.001 49H40Z" fill="white"/>
<path d="M32.075 87.2525L23.7725 82.4525C23.2925 82.1825 22.7075 82.1825 22.2275 82.46L13.9325 87.2525C13.8104 87.3234 13.7122 87.429 13.6502 87.5559C13.5883 87.6827 13.5654 87.8251 13.5845 87.965H13.5725V89.87C13.5725 90.0312 13.6265 90.1925 13.7345 90.3215C13.0437 90.7355 12.5397 91.4795 12.5225 92.555C12.5382 93.542 12.9657 94.25 13.5725 94.6797V96.2075C13.5725 96.4475 13.6925 96.6875 13.9325 96.8225L22.235 101.622C22.7075 101.9 23.3 101.9 23.7725 101.622L32.075 96.8225C32.315 96.6875 32.435 96.4475 32.435 96.2075V94.6827C33.0425 94.2537 33.473 93.5442 33.4925 92.555C33.4685 91.4825 32.9622 90.7385 32.27 90.3245C32.3769 90.1972 32.4353 90.0362 32.435 89.87V87.965H32.4237C32.4428 87.825 32.4198 87.6826 32.3577 87.5557C32.2956 87.4289 32.1972 87.3233 32.075 87.2525ZM14.3607 87.8712L22.6032 83.1087C22.85 82.9662 23.1507 82.9647 23.4012 83.1042L31.6467 87.8712L23.3967 92.6412L23.393 92.6435C23.1545 92.783 22.853 92.783 22.6145 92.6435L14.3607 87.8712ZM14.0975 90.5802L22.235 95.285C22.7075 95.5625 23.3 95.5625 23.7725 95.285L31.9025 90.5847L32.0675 90.68C32.54 90.9575 32.54 91.64 32.0675 91.9175L23.765 96.7175C23.2925 96.995 22.7 96.995 22.2275 96.7175L13.925 91.9175C13.817 91.8543 13.7275 91.7639 13.6652 91.6553C13.603 91.5468 13.5703 91.4239 13.5703 91.2987C13.5703 91.1736 13.603 91.0507 13.6652 90.9421C13.7275 90.8336 13.817 90.7432 13.925 90.68L14.0975 90.5802ZM14.2482 95.0217C14.6483 95.1562 15.0728 95.2025 15.4925 95.1575C15.89 95.1125 16.265 95.3225 16.4375 95.6825C17 96.875 18.3725 97.325 19.55 97.025C19.94 96.9275 20.345 97.0775 20.555 97.4075C20.7472 97.8553 21.0587 98.2418 21.4554 98.5248C21.8522 98.8078 22.319 98.9765 22.805 99.0125H22.8125C22.8725 99.02 22.9325 99.02 23 99.02H23.015C23.075 99.02 23.135 99.02 23.2025 99.0125H23.21C23.696 98.9765 24.1628 98.8078 24.5596 98.5248C24.9563 98.2418 25.2678 97.8553 25.46 97.4075C25.67 97.0775 26.075 96.9275 26.465 97.025C27.635 97.325 29.015 96.875 29.5775 95.6825C29.75 95.3225 30.125 95.1125 30.5225 95.1575C30.9245 95.2004 31.3311 95.1596 31.7165 95.0375L31.0077 95.4477C30.871 95.9821 30.628 96.4834 30.2934 96.9219C29.9588 97.3604 29.5393 97.727 29.06 98C28.0254 98.597 26.8076 98.7935 25.6377 98.552L23.765 99.635C23.2925 99.9125 22.7 99.9125 22.2275 99.635L20.3562 98.5535C19.1881 98.793 17.9727 98.5961 16.94 98C16.4614 97.7275 16.0424 97.3617 15.7079 96.9242C15.3735 96.4866 15.1303 95.9863 14.993 95.453L14.2482 95.0217Z" fill="white"/>
<path d="M55.7 119.234C55.4281 119.234 55.1328 119.264 54.8141 119.324C53.8344 119.505 52.6531 119.959 51.3828 120.614C51.1156 120.751 50.8438 120.897 50.5719 121.051C51.1063 121.215 51.6453 121.392 52.1047 121.597C52.5172 121.777 52.8734 121.978 53.1313 122.273C53.3891 122.573 53.4922 123.056 53.2953 123.459C53.1641 123.727 52.9484 123.787 52.7609 123.839C52.5688 123.886 52.3578 123.909 52.1188 123.919C51.6359 123.942 51.0266 123.909 50.3609 123.844C49.2734 123.741 48.0359 123.553 47.0188 123.352C46.3813 123.811 45.7438 124.294 45.1109 124.795C45.6406 124.964 46.1375 125.184 46.5688 125.433C47.0563 125.714 47.4547 126.019 47.7172 126.366C47.8484 126.544 47.9516 126.736 47.975 126.966C47.9984 127.2 47.9094 127.462 47.7359 127.636C47.3563 128.025 46.8266 128.039 46.2219 128.03C45.6219 128.025 44.9234 127.931 44.2297 127.809C43.4563 127.669 42.7156 127.5 42.1344 127.35C41.3703 128.048 40.6531 128.752 39.9875 129.436C40.4375 129.609 40.925 129.834 41.3609 130.073C41.7359 130.28 42.0688 130.491 42.3172 130.73C42.4438 130.847 42.5516 130.969 42.6266 131.137C42.7016 131.306 42.7203 131.559 42.6078 131.756V131.761C42.4813 131.972 42.3031 132.052 42.1297 132.117C41.9609 132.183 41.7688 132.23 41.5531 132.262C41.1219 132.333 40.6063 132.366 40.0625 132.375C39.1461 132.389 38.1964 132.333 37.5509 132.23C37.3948 132.436 37.2477 132.633 37.1117 132.83C36.455 133.772 36.0523 134.592 35.9614 135.112C35.9159 135.375 35.9455 135.539 35.9994 135.637C36.0528 135.736 36.1358 135.811 36.3622 135.872C36.7925 135.98 37.5252 135.895 38.4298 135.577C39.3345 135.258 40.4094 134.733 41.5719 134.053C43.8969 132.694 46.5688 130.739 49.0297 128.681C51.4906 126.623 53.7406 124.462 55.2266 122.7C55.9672 121.819 56.5203 121.038 56.8016 120.453C56.9422 120.16 57.0125 119.918 57.0266 119.764C57.0359 119.633 57.0219 119.591 56.9938 119.559C56.6891 119.359 56.2953 119.248 55.8172 119.235H55.7V119.234ZM49.5828 121.633C49.0578 121.955 48.5234 122.302 47.9844 122.667C48.7859 122.808 49.6625 122.93 50.4453 123.005C51.0875 123.066 51.6688 123.094 52.0813 123.075C52.2875 123.066 52.4516 123.047 52.5406 123.023C52.5688 123.014 52.5641 123.014 52.5734 123.009C52.5969 122.939 52.5781 122.92 52.4938 122.827C52.3859 122.7 52.1188 122.527 51.7625 122.367C51.1719 122.105 50.3516 121.866 49.5828 121.633ZM57.05 121.702C56.7313 122.175 56.3328 122.695 55.8688 123.244C55.3625 123.844 54.7766 124.481 54.1297 125.147C54.5563 125.166 55.025 125.128 55.5031 125.011C56.3563 124.8 57.0734 124.387 57.5234 123.933C57.9688 123.473 58.1328 123.009 58.0344 122.611C57.9406 122.227 57.6078 121.898 57.05 121.702ZM44.2953 125.461C43.9672 125.733 43.6438 126.005 43.325 126.281C43.1797 126.408 43.0344 126.534 42.8891 126.666C43.3484 126.773 43.8641 126.886 44.3797 126.98C45.0453 127.097 45.7109 127.181 46.2359 127.186C46.7563 127.195 47.1172 127.059 47.1359 127.045C47.1313 127.027 47.1125 126.966 47.0422 126.872C46.9016 126.68 46.5734 126.408 46.1469 126.169C45.6266 125.869 44.9563 125.606 44.2953 125.461ZM53.3703 125.902C52.4375 126.816 51.4016 127.762 50.3141 128.695C50.5625 128.733 50.825 128.756 51.0969 128.756C51.9781 128.756 52.7703 128.527 53.3141 128.189C53.8578 127.852 54.125 127.439 54.125 127.027C54.125 126.628 53.8766 126.234 53.3703 125.902ZM57.4766 125.934C57.3594 126.052 57.2375 126.173 57.1016 126.286C54.2703 128.681 50.8484 131.78 47.4031 134.217C44.0094 136.622 40.5922 138.422 37.5819 138.173C37.9091 138.412 38.255 138.558 38.6023 138.647C39.4902 138.881 40.4094 138.717 40.9344 138.567C44.7219 137.475 48.7531 134.798 51.8609 132.258C53.4125 130.987 54.7344 129.755 55.6813 128.775C56.1547 128.287 56.5344 127.866 56.8016 127.537C57.0688 127.214 57.2188 126.919 57.2094 126.961C57.3172 126.595 57.4062 126.253 57.4766 125.934ZM49.5031 129.38C48.4297 130.28 47.3188 131.156 46.2078 131.977C46.4609 132.009 46.7234 132.028 46.9953 132.028C47.9422 132.028 48.7953 131.808 49.3766 131.48C49.9578 131.152 50.2344 130.758 50.2344 130.392C50.2344 130.055 50 129.694 49.5031 129.38ZM39.35 130.111C38.9253 130.57 38.5311 131.016 38.1716 131.452C38.7111 131.503 39.4067 131.536 40.0531 131.531C40.5688 131.522 41.0563 131.489 41.4172 131.433C41.5578 131.409 41.6609 131.377 41.7453 131.353C41.7406 131.344 41.7453 131.348 41.7406 131.344C41.5859 131.194 41.2953 130.997 40.9531 130.809C40.4516 130.533 39.8328 130.27 39.35 130.111ZM45.0078 132.839C43.9766 133.561 42.9641 134.217 41.9984 134.78C41.7031 134.953 41.4172 135.112 41.1313 135.267C41.5109 135.352 41.9328 135.398 42.3688 135.398C43.3156 135.398 44.1688 135.178 44.75 134.85C45.3313 134.522 45.6078 134.128 45.6078 133.762C45.6078 133.458 45.4109 133.13 45.0078 132.839ZM39.8563 135.905C39.4559 136.087 39.073 136.247 38.7088 136.373C37.7975 136.692 36.9969 136.852 36.3116 136.72C36.3584 136.767 36.4095 136.809 36.4658 136.852C36.8145 137.114 37.325 137.287 37.8973 137.287C38.4697 137.287 38.9802 137.114 39.3289 136.852C39.6767 136.594 39.8563 136.275 39.8563 135.937V135.905Z" fill="white"/>
<path d="M110.248 30.1038C110.218 21.2688 102.713 13.78 93.8595 13.7519L93.3135 13.75L93.1823 14.2803L88.0267 35.1302L87.75 36.25L88.8694 35.971L109.721 30.7806L110.25 30.6486L110.248 30.1038ZM99.8291 32.527C99.5111 31.6754 98.7949 30.9587 97.7183 31.2318C96.8291 31.4568 96.2299 32.4921 96.4688 33.3632L88.7018 35.2967L93.234 16.966C100.288 18.0363 105.958 23.7055 107.031 30.7341L99.8291 32.527Z" fill="white"/>
<path d="M92.5965 28.2257C92.88 28.2268 93.1608 28.1717 93.4229 28.0636C93.6849 27.9554 93.9229 27.7964 94.1231 27.5957C94.3236 27.396 94.4826 27.1585 94.591 26.897C94.6993 26.6355 94.7548 26.3552 94.7542 26.0721C94.755 25.7892 94.6997 25.5089 94.5913 25.2476C94.483 24.9862 94.3238 24.749 94.1231 24.5496C93.9615 24.3887 93.6776 24.388 93.5167 24.5496C93.477 24.5893 93.4455 24.6365 93.424 24.6884C93.4026 24.7403 93.3915 24.796 93.3916 24.8521C93.3916 24.9083 93.4027 24.9639 93.4243 25.0158C93.4458 25.0677 93.4774 25.1148 93.5171 25.1545C93.762 25.3986 93.8974 25.7256 93.8974 26.0725C93.8974 26.4194 93.7631 26.746 93.5179 26.9901C93.0259 27.4799 92.1671 27.4799 91.677 26.9909C91.5956 26.9124 91.487 26.8686 91.374 26.8686C91.261 26.8686 91.1524 26.9124 91.071 26.9909C90.991 27.0711 90.9461 27.1797 90.9462 27.293C90.9463 27.4063 90.9913 27.5149 91.0714 27.595C91.2711 27.796 91.5088 27.9552 91.7706 28.0635C92.0324 28.1718 92.3132 28.2269 92.5965 28.2257ZM98.8204 22.4432C98.7572 22.7095 98.7555 22.9866 98.8155 23.2536C98.8919 23.5925 99.0621 23.9031 99.3067 24.15C99.5512 24.3968 99.8603 24.5698 100.198 24.6494C100.299 24.6721 100.404 24.6544 100.491 24.6C100.578 24.5457 100.641 24.4591 100.664 24.3591C100.684 24.2593 100.665 24.1556 100.611 24.0692C100.557 23.9829 100.472 23.9205 100.374 23.8949C99.822 23.767 99.4455 23.1745 99.576 22.618C99.6077 22.4817 99.666 22.3531 99.7475 22.2393C99.829 22.1256 99.9321 22.0291 100.051 21.9552C100.17 21.8813 100.302 21.8316 100.44 21.8089C100.578 21.7861 100.719 21.7908 100.855 21.8226C100.956 21.8459 101.061 21.829 101.148 21.7739C101.236 21.7191 101.298 21.6332 101.32 21.532C101.334 21.4757 101.334 21.4176 101.322 21.361C101.306 21.2898 101.27 21.2246 101.219 21.1727C101.167 21.1209 101.102 21.0845 101.031 21.0677C100.796 21.0123 100.551 21.0043 100.313 21.0441C100.074 21.084 99.8454 21.1709 99.6405 21.2999C99.4347 21.4264 99.2562 21.5927 99.1154 21.789C98.9746 21.9853 98.8743 22.2077 98.8204 22.4432ZM102.241 29.0346C101.991 28.9666 101.728 28.9559 101.473 29.0035C101.15 29.0638 100.85 29.2137 100.608 29.4361C100.366 29.6585 100.191 29.9444 100.103 30.2612C100.091 30.3077 100.088 30.3562 100.094 30.4039C100.1 30.4516 100.116 30.4976 100.14 30.5392C100.164 30.5809 100.196 30.6174 100.234 30.6466C100.273 30.6759 100.316 30.6973 100.363 30.7097C100.457 30.7325 100.556 30.7184 100.639 30.6703C100.723 30.6223 100.785 30.5439 100.813 30.4514C100.953 29.9354 101.527 29.6009 102.049 29.7426C102.177 29.7767 102.297 29.8358 102.402 29.9166C102.507 29.9974 102.595 30.0982 102.661 30.2132C102.795 30.4465 102.831 30.7176 102.76 30.9767C102.744 31.0366 102.743 31.0997 102.758 31.1599C102.773 31.2202 102.803 31.2757 102.845 31.3213C102.887 31.3668 102.94 31.4009 102.999 31.4202C103.058 31.4396 103.121 31.4437 103.182 31.432C103.25 31.4192 103.313 31.3876 103.364 31.3408C103.415 31.294 103.452 31.2339 103.471 31.1672C103.531 30.9467 103.547 30.7164 103.517 30.4898C103.488 30.2631 103.413 30.0446 103.299 29.8469C103.185 29.6485 103.032 29.4746 102.851 29.3352C102.669 29.1958 102.462 29.0936 102.241 29.0346ZM100.819 26.3305C100.332 24.907 98.7709 24.1401 97.3267 24.6175C95.8834 25.0956 95.1056 26.638 95.5905 28.06C96.0757 29.4857 97.638 30.2511 99.0832 29.773C100.524 29.296 101.302 27.7536 100.819 26.3305ZM102 27.6347C102.291 28.4894 103.23 28.9502 104.1 28.663C104.966 28.375 105.432 27.4495 105.143 26.5941C104.851 25.7395 103.911 25.2786 103.045 25.5644C102.177 25.8524 101.71 26.7782 102 27.6347ZM93.7256 21.7735C94.1239 22.9386 95.4019 23.5652 96.5831 23.1734C97.7617 22.7826 98.3985 21.5207 98.0029 20.3571C97.6042 19.1942 96.3274 18.5676 95.1461 18.958C93.9679 19.348 93.3311 20.6099 93.7256 21.7735ZM94.7284 30.0932C94.3174 28.8947 93.0011 28.2486 91.7854 28.6487C90.5726 29.0526 89.9175 30.3505 90.3244 31.5482C90.732 32.7505 92.0471 33.3944 93.2662 32.9916C94.4797 32.5885 95.1345 31.2906 94.7284 30.0932Z" fill="white"/>
<path d="M155.25 58.7191L153.209 51.7881C153.163 51.6328 153.068 51.4965 152.939 51.3995C152.809 51.3025 152.652 51.2501 152.49 51.25H143.51C143.348 51.2501 143.191 51.3025 143.061 51.3995C142.932 51.4965 142.837 51.6328 142.791 51.7881L140.75 58.7191C140.43 59.7814 140.413 60.9121 140.702 61.9835C140.991 63.0548 141.573 64.0241 142.383 64.7819C143.717 66.0321 145.43 66.8007 147.25 66.9653V70.75H144.25C144.051 70.75 143.86 70.829 143.72 70.9697C143.579 71.1103 143.5 71.3011 143.5 71.5C143.5 71.6989 143.579 71.8897 143.72 72.0303C143.86 72.171 144.051 72.25 144.25 72.25H151.75C151.949 72.25 152.14 72.171 152.28 72.0303C152.421 71.8897 152.5 71.6989 152.5 71.5C152.5 71.3011 152.421 71.1103 152.28 70.9697C152.14 70.829 151.949 70.75 151.75 70.75H148.75V66.9653C150.57 66.8007 152.283 66.0321 153.617 64.7819C154.427 64.024 155.009 63.0547 155.298 61.9834C155.586 60.9121 155.57 59.7814 155.25 58.7191ZM144.071 52.75H151.929L153.812 59.1428C153.821 59.1709 153.828 59.1991 153.836 59.2272C151.828 59.9472 149.567 59.0772 148.339 58.4556C145.978 57.2603 144.103 57.1084 142.72 57.3372L144.071 52.75Z" fill="white"/>
<path d="M134.074 127.573H132.1C132.189 127.387 132.329 127.23 132.504 127.121C132.678 127.011 132.881 126.952 133.087 126.952C133.293 126.952 133.495 127.011 133.67 127.121C133.844 127.23 133.984 127.387 134.074 127.573ZM137.231 126.95C137.232 126.694 137.25 126.439 137.287 126.186C137.134 126.211 136.988 126.268 136.858 126.353C136.729 126.439 136.619 126.551 136.536 126.682C136.454 126.813 136.4 126.961 136.378 127.114C136.357 127.268 136.368 127.424 136.412 127.573H137.269C137.245 127.367 137.233 127.159 137.233 126.95H137.231ZM132.8 122.918C132.067 122.185 131.082 121.41 130.214 121.41H130.142L130.188 122.312C130.605 122.292 131.279 122.701 132.039 123.44C132.086 123.486 132.133 123.533 132.179 123.579C132.304 123.552 132.43 123.537 132.558 123.535C132.604 123.317 132.687 123.108 132.802 122.917L132.8 122.918ZM133.942 122.03C134.063 121.888 134.172 121.735 134.267 121.574C134.41 121.33 134.522 121.07 134.6 120.798C134.678 120.528 134.72 120.249 134.727 119.968C134.733 119.707 134.707 119.446 134.649 119.191C134.623 119.081 134.592 118.971 134.554 118.863C134.524 118.774 134.489 118.687 134.45 118.601C134.422 118.542 134.393 118.483 134.361 118.426C134.35 118.406 134.339 118.39 134.333 118.379L134.323 118.363L134.306 118.371C134.295 118.377 134.277 118.385 134.257 118.396C134.2 118.428 134.143 118.462 134.088 118.499C134.01 118.551 133.934 118.607 133.863 118.668C133.775 118.74 133.69 118.817 133.611 118.898C133.428 119.084 133.269 119.293 133.137 119.518C132.996 119.761 132.886 120.02 132.811 120.291C132.733 120.562 132.69 120.842 132.683 121.124C132.678 121.386 132.704 121.646 132.761 121.901C132.808 122.103 132.874 122.3 132.96 122.489C132.982 122.539 133.003 122.581 133.023 122.617C133.269 122.339 133.589 122.136 133.944 122.03L133.942 122.03ZM149.993 119.972C149.982 119.966 149.965 119.956 149.945 119.945C149.887 119.914 149.828 119.886 149.768 119.861C149.693 119.829 149.604 119.794 149.503 119.762C149.395 119.728 149.285 119.699 149.173 119.676C148.917 119.624 148.655 119.604 148.394 119.617C148.114 119.63 147.836 119.679 147.568 119.763C147.299 119.846 147.042 119.963 146.803 120.111C146.581 120.248 146.376 120.412 146.194 120.599L146.168 120.626C146.428 120.933 146.628 121.286 146.76 121.666C146.936 121.687 147.113 121.693 147.29 121.685C147.57 121.672 147.848 121.623 148.117 121.54C148.386 121.459 148.643 121.343 148.882 121.195C149.105 121.058 149.309 120.894 149.492 120.707C149.571 120.625 149.646 120.539 149.717 120.449C149.782 120.365 149.837 120.288 149.88 120.218C149.923 120.148 149.957 120.09 149.978 120.048C149.989 120.028 149.997 120.01 150.002 119.999L150.011 119.981L149.993 119.972ZM145.978 116.876C145.958 116.796 145.938 116.721 145.932 116.688L145.042 116.851C145.054 116.916 145.074 116.994 145.102 117.101C145.234 117.612 145.538 118.789 145.171 119.83C145.449 119.975 145.704 120.158 145.929 120.374C146.529 119.018 146.141 117.513 145.976 116.876L145.978 116.876ZM135.446 137.312H141.194C142.173 137.313 143.143 137.12 144.048 136.745C144.953 136.37 145.775 135.821 146.468 135.128C147.16 134.435 147.709 133.613 148.084 132.708C148.459 131.803 148.652 130.834 148.652 129.854V128.476H127.989V129.855C127.989 131.832 128.775 133.729 130.173 135.128C131.572 136.526 133.468 137.312 135.446 137.312ZM146.938 126.95C146.939 125.818 146.502 124.728 145.718 123.911C145.899 123.597 146.005 123.246 146.029 122.884C146.053 122.523 145.993 122.161 145.855 121.826C145.716 121.491 145.502 121.193 145.23 120.954C144.958 120.715 144.634 120.542 144.284 120.448C143.935 120.354 143.568 120.342 143.213 120.412C142.857 120.483 142.523 120.634 142.235 120.854C141.948 121.074 141.715 121.358 141.554 121.682C141.393 122.007 141.31 122.364 141.309 122.727C140.291 123.022 139.413 123.675 138.838 124.566C138.263 125.457 138.03 126.526 138.18 127.576H146.892C146.922 127.369 146.937 127.16 146.938 126.95ZM135.467 127.267C135.467 126.782 135.643 126.314 135.964 125.951C135.859 125.751 135.695 125.589 135.495 125.487C135.295 125.384 135.067 125.345 134.844 125.376C134.621 125.407 134.413 125.505 134.248 125.659C134.083 125.812 133.969 126.012 133.922 126.233C134.193 126.358 134.432 126.542 134.623 126.771C134.813 127 134.95 127.269 135.024 127.558C135.18 127.553 135.334 127.515 135.475 127.445C135.469 127.386 135.467 127.326 135.467 127.267ZM131.745 126.565C131.608 126.313 131.378 126.125 131.104 126.041C130.83 125.957 130.533 125.984 130.279 126.116C130.024 126.248 129.831 126.474 129.742 126.747C129.652 127.019 129.673 127.316 129.799 127.573H131.144C131.239 127.184 131.448 126.834 131.745 126.565H131.745ZM135.488 123.439C135.385 123.24 135.222 123.077 135.023 122.973C134.824 122.869 134.598 122.829 134.375 122.858C134.152 122.887 133.944 122.983 133.778 123.135C133.612 123.286 133.496 123.485 133.447 123.704C133.836 123.887 134.157 124.189 134.362 124.568C134.535 124.509 134.715 124.475 134.898 124.467C134.986 124.073 135.192 123.714 135.488 123.439H135.488ZM136.848 123.806C136.604 123.805 136.368 123.886 136.175 124.035C135.983 124.184 135.845 124.392 135.784 124.628C136.164 124.792 136.483 125.069 136.7 125.421C136.942 125.32 137.203 125.268 137.466 125.268H137.506C137.598 124.99 137.714 124.721 137.851 124.463C137.766 124.268 137.625 124.101 137.447 123.985C137.269 123.868 137.061 123.806 136.848 123.806H136.848ZM133.589 125.043C133.49 124.844 133.334 124.68 133.14 124.571C132.946 124.463 132.723 124.417 132.502 124.438C132.281 124.459 132.071 124.547 131.901 124.69C131.731 124.833 131.609 125.025 131.55 125.239C131.969 125.416 132.315 125.729 132.533 126.127C132.698 126.08 132.869 126.054 133.041 126.05C133.121 125.668 133.312 125.318 133.589 125.043Z" fill="white"/>
<path d="M90.9996 145.875C88.8164 145.875 86.7783 146.251 85.0518 146.898C84.8586 146.94 84.6603 147.009 84.4821 147.127C84.1957 147.25 83.914 147.384 83.6376 147.528C83.4953 147.556 83.3649 147.626 83.2638 147.73C82.7921 147.996 82.3437 148.301 81.9235 148.642C81.8563 148.622 81.7866 148.612 81.7165 148.611C81.5102 148.611 81.3179 148.696 81.1742 148.849C80.9523 149.086 80.8975 149.368 80.9114 149.639C80.89 149.665 80.8713 149.692 80.8503 149.718C80.6196 149.803 80.4141 150 80.3624 150.343C80.3579 150.372 80.3609 150.403 80.3586 150.432C79.9649 151.118 79.75 151.852 79.75 152.616C79.75 154.224 80.6958 155.702 82.27 156.862C83.6624 158.774 87.0411 160.125 91 160.125C94.9589 160.125 98.3399 158.773 99.7319 156.861C101.305 155.7 102.25 154.223 102.25 152.616C102.25 148.899 97.2029 145.875 90.9996 145.875ZM81.1041 150.23C81.2965 150.23 81.5774 150.459 81.6884 150.573C81.5534 150.708 81.415 150.917 81.31 151.174C81.288 151.228 81.2679 151.284 81.2496 151.34C81.2286 151.279 81.187 151.209 81.1169 151.092C81.0033 150.904 80.8848 150.655 80.9189 150.427C80.9403 150.283 81.0119 150.23 81.1041 150.23ZM80.5525 152.368C80.4959 152.164 80.7272 152.063 80.8832 152.029C81.055 151.992 81.1202 152 81.1566 151.958C81.1694 152.085 81.2106 152.172 81.2819 152.195C81.4626 152.251 81.7679 151.885 81.9779 151.403C82.1886 150.918 82.2182 150.49 82.0307 150.42C81.9437 150.387 81.8256 150.443 81.7041 150.559C81.6535 150.197 81.28 149.56 81.5845 149.235C81.601 149.216 81.6213 149.201 81.644 149.19C81.6668 149.18 81.6915 149.175 81.7165 149.175C81.8369 149.175 81.9666 149.288 82.0382 149.368C82.0683 149.401 82.0994 149.421 82.1309 149.435L82.1305 149.459C82.147 149.949 82.3293 150.325 82.5363 150.297C82.6829 150.278 82.8059 150.069 82.8644 149.782C83.0241 149.887 83.4213 149.681 83.779 149.342C84.1435 148.995 84.3269 148.64 84.1735 148.515C84.0212 148.39 83.5892 148.547 83.2248 148.898C83.161 148.959 83.1062 149.022 83.0556 149.085C82.4687 149.04 83.3417 148.398 83.59 148.302C83.6241 148.124 83.6984 148.073 83.7914 148.073C83.8349 148.073 83.8833 148.085 83.9328 148.1C83.908 148.145 83.8983 148.188 83.9129 148.227C83.9792 148.403 84.4416 148.421 84.9531 148.296C85.4654 148.17 85.8385 147.959 85.7808 147.796C85.7234 147.633 85.2501 147.569 84.7292 147.683C84.7135 147.686 84.6996 147.691 84.6842 147.694C85.0525 147.294 85.8741 147.483 86.212 147.204C86.2525 147.169 86.308 147.158 86.3661 147.158C86.4369 147.161 86.507 147.172 86.575 147.192C86.6418 147.209 86.692 147.216 86.7362 147.216C86.833 147.216 86.9005 147.186 87.0434 147.177C87.0561 147.176 87.0694 147.176 87.0831 147.176C87.1709 147.176 87.2699 147.198 87.3059 147.287C87.4757 147.262 87.5635 147.263 87.7109 147.197C87.3899 146.982 87.8118 146.906 88.0311 146.891C87.9587 146.936 87.9224 146.987 87.94 147.039C87.9891 147.186 88.423 147.273 88.927 147.268C89.0695 147.28 89.2259 147.285 89.389 147.279C89.9181 147.257 90.3055 147.151 90.253 147.012C90.2215 146.931 90.0434 146.855 89.7966 146.806C89.9492 146.778 90.1034 146.76 90.2582 146.751H90.2616C90.0895 146.534 90.1353 146.464 90.262 146.464C90.4495 146.464 90.8136 146.617 90.9171 146.678L90.9359 146.691C90.7525 146.715 90.7206 146.976 90.8691 147.292C91.0266 147.631 91.3255 147.894 91.54 147.894C91.7552 147.896 91.8104 147.646 91.657 147.317C91.6452 147.293 91.6326 147.27 91.6191 147.246C91.7222 147.376 91.7016 147.423 91.9004 147.496C92.2109 147.609 92.0646 147.695 92.2488 147.86C92.4145 147.901 92.581 147.964 92.7377 148.032C92.818 148.067 93.3753 148.706 93.106 148.706C93.093 148.706 93.0786 148.706 93.0629 148.704C92.9132 148.694 92.7636 148.651 92.6219 148.605C92.6159 148.583 92.6054 148.563 92.5912 148.546C92.577 148.529 92.5593 148.515 92.5394 148.506C92.3597 148.405 91.9574 148.472 91.6491 148.682C91.4669 148.806 91.3596 148.947 91.3371 149.06C91.2859 149.039 91.2333 149.023 91.1796 149.01C91.2723 148.923 91.3458 148.795 91.3795 148.647C91.4462 148.35 91.3229 148.07 91.0994 148.019C90.8781 147.969 90.646 148.184 90.586 148.501C90.5526 148.674 90.577 148.835 90.6396 148.952C90.5746 148.951 90.5085 148.952 90.4412 148.955C89.9178 148.982 89.536 149.139 89.5825 149.278C89.602 149.335 89.6916 149.378 89.8232 149.406C89.6901 149.444 89.548 149.497 89.41 149.573C89.1842 149.695 89.0249 149.839 88.9491 149.96C88.7589 149.956 88.5688 149.974 88.3825 150.012C87.8763 150.113 87.5148 150.338 87.5665 150.486C87.6186 150.635 88.0592 150.641 88.5588 150.526C88.9596 150.434 89.2758 150.3 89.3624 150.181C89.5522 150.128 89.7355 150.054 89.9088 149.96C90.265 149.769 90.478 149.564 90.4244 149.444C90.4819 149.442 90.5405 149.439 90.6003 149.435C90.9989 149.403 91.3195 149.329 91.4275 149.24C91.5096 149.276 91.6356 149.27 91.7744 149.238C91.7526 149.448 91.9274 149.745 91.7485 149.954C91.7265 149.981 91.6988 150.003 91.6674 150.017C91.636 150.032 91.6017 150.04 91.567 150.039C91.4526 150.039 91.3315 149.968 91.2516 149.889C91.1421 149.782 90.9025 149.684 90.7203 149.684C90.6718 149.683 90.6237 149.693 90.5793 149.712C90.3632 149.819 90.2327 149.75 90.0449 149.888C90.1233 149.894 90.5151 149.933 90.3377 150.114C90.3516 150.114 90.3966 150.112 90.4581 150.112C90.6925 150.112 91.1688 150.135 91.0904 150.3C90.9858 150.522 90.4517 150.573 90.253 150.607C90.0813 150.636 89.8874 150.663 89.6961 150.663C89.5308 150.663 89.3672 150.643 89.2218 150.585C89.116 150.543 89.0312 150.509 88.945 150.509C88.8779 150.509 88.8104 150.53 88.7313 150.583C88.5978 150.674 88.8422 150.754 89.0118 150.754C89.1468 150.754 89.2671 150.78 89.3009 150.866C89.365 151.029 88.9386 151.196 88.8494 151.234C88.7804 151.265 88.102 151.471 87.7536 151.471C87.5972 151.471 87.2065 151.369 87.0516 151.539C86.9901 151.605 86.893 151.625 86.7944 151.625C86.7115 151.625 86.0781 151.703 85.7736 151.783C85.6661 151.859 85.6691 151.916 85.7826 151.955C85.8189 152.003 85.8215 152.05 85.7905 152.099C85.7155 152.229 85.5404 152.303 85.4095 152.355L85.3682 152.37C85.3675 152.366 85.369 152.362 85.3679 152.359C85.3184 152.224 84.9887 152.228 84.6003 152.374C84.5174 152.238 84.1915 152.142 83.7805 152.152C83.6241 152.156 83.4775 152.177 83.347 152.21C83.4355 152.033 83.491 151.762 83.4854 151.469C83.4768 150.993 83.3016 150.627 83.0931 150.652C82.8846 150.677 82.7305 151.098 82.7511 151.593C82.7658 151.951 82.8621 152.239 82.9889 152.357C82.9075 152.413 82.855 152.475 82.849 152.542C82.8306 152.742 83.209 152.875 83.6942 152.843C83.7537 152.838 83.8119 152.832 83.8686 152.825C83.7329 152.962 83.6646 153.094 83.698 153.181C83.7224 153.245 83.7951 153.275 83.9001 153.275C83.8282 153.336 83.7544 153.395 83.6789 153.451C83.4663 153.605 83.8397 153.768 83.5919 153.957C83.5082 154.021 83.3991 154.042 83.2908 154.042C83.224 154.042 83.1576 154.034 83.0976 154.023C82.9603 153.998 82.8277 153.951 82.7046 153.885C82.7886 153.701 82.7515 153.364 82.5899 153.038C82.3926 152.64 82.081 152.404 81.904 152.527C81.7757 152.615 81.7581 152.873 81.8354 153.163C81.7813 153.13 81.7293 153.094 81.6797 153.055C81.5505 153.087 81.4178 153.104 81.2845 153.105C81.2478 153.105 81.2113 153.103 81.175 153.1C81.0325 153.089 80.785 153.042 80.773 152.857C80.7603 152.623 80.9564 152.772 80.7096 152.576C80.6371 152.524 80.5822 152.452 80.5525 152.368ZM90.6336 151.401L90.5988 151.122C90.7739 151.092 90.973 151.045 91.1537 150.958L91.7035 150.889L91.75 151.262L90.6336 151.401ZM91.375 154.96L91.189 155.285L90.2125 154.727L90.3985 154.402L91.375 154.96ZM91.4789 154.377C91.7699 153.77 92.0016 153.545 92.3196 153.452C92.5052 153.398 92.5938 153.224 92.7246 153.12L91.7875 152.585L91.9735 152.259L92.95 152.817L92.8034 153.073C92.8844 153.036 92.9822 153.026 93.1236 153.08C93.5796 153.252 93.9775 152.824 94.0956 153.564C94.213 154.303 93.364 154.259 93.223 154.713C93.0828 155.165 92.3849 154.953 92.0811 155.391C91.7766 155.829 91.1211 155.124 91.4789 154.377ZM91.7931 149.236C91.9719 149.191 92.1425 149.118 92.2986 149.019C92.3253 149.003 92.3485 148.986 92.3717 148.969C92.5008 149.141 92.7336 149.534 92.4314 149.578C92.4148 149.58 92.3982 149.581 92.3815 149.581C92.1595 149.581 91.9338 149.388 91.7931 149.236ZM93.25 151.727L93.436 151.401L94.4125 151.959L94.2265 152.284L93.25 151.727ZM94.0904 150.431C93.736 150.266 93.2751 150.632 92.9177 151.034C92.5604 151.435 92.6035 150.765 92.6864 150.499C92.7723 150.224 92.8382 150.124 92.8682 149.987C92.9714 149.908 93.0512 149.803 93.0974 149.678C93.1476 149.541 93.151 149.401 93.1266 149.268C93.2594 149.265 93.3708 149.235 93.4623 149.187C93.6265 149.195 93.9588 149.162 94.2704 149.577C94.6038 150.022 94.4455 150.597 94.0904 150.431ZM89.4164 153.005C89.7899 153.051 89.7929 153.608 89.575 153.896C89.3571 154.183 89.0984 155.075 88.6626 155.25C88.2257 155.425 87.8489 154.902 87.9081 154.183C87.9685 153.465 88.7972 152.929 89.4164 153.005ZM88.5805 152.729L88.9352 151.799C89.0039 151.776 89.0568 151.758 89.0755 151.75L89.0909 151.744C89.101 151.739 89.1085 151.735 89.1186 151.73L89.332 151.812L88.9311 152.863L88.5805 152.729ZM87.625 153.46L87.439 153.786L86.4625 153.228L86.6485 152.902L87.625 153.46ZM90.9996 158.607C85.7481 158.607 81.3895 156.395 80.6245 153.518C80.7572 153.592 80.9219 153.646 81.1322 153.662C81.2124 153.667 81.2927 153.669 81.373 153.666C81.4262 153.754 81.5001 153.831 81.5928 153.89L81.6205 153.908L81.6501 153.922C81.7499 153.971 81.8536 153.999 81.9614 154.008C82.2156 154.296 82.5914 154.503 82.9967 154.577C83.0972 154.596 83.197 154.606 83.2911 154.606C83.3774 154.606 83.4576 154.595 83.5352 154.579C83.9987 154.868 84.5384 155.13 85.1444 155.356C85.2618 155.474 85.3653 155.692 85.1845 156.088C84.8748 156.765 85.96 157.636 86.9365 157.119C87.913 156.603 89.3271 156.766 89.8574 157.119C90.3876 157.472 91.888 157.581 92.6751 157.119C93.4626 156.657 94.0622 156.293 95.3939 156.312C96.7255 156.331 97.7256 155.096 98.4025 154.622L98.4047 154.62C99.5714 153.91 100.264 153.028 100.264 152.072C100.264 150.15 97.4575 148.529 93.6171 148.012C93.5061 147.823 93.2882 147.656 92.9601 147.515C92.8455 147.465 92.7286 147.42 92.6099 147.381C92.5079 147.191 92.3556 147.068 92.1209 146.978C92.0849 146.926 92.0457 146.876 92.0035 146.829C91.946 146.765 91.8855 146.704 91.822 146.646C97.2284 146.886 101.5 149.471 101.5 152.616C101.5 155.919 96.7892 158.607 90.9996 158.607ZM96.6768 152.72C96.4439 152.643 96.178 152.365 95.7355 152.478C95.293 152.591 94.4999 152.856 94.7759 152.04C94.942 151.548 95.2476 150.304 96.1337 150.327C97.0199 150.351 96.8403 151.379 96.8403 151.379C96.8403 151.379 96.9093 152.798 96.6768 152.72ZM95.8285 153.515L95.875 153.887L94.7586 154.026L94.7121 153.654L95.8285 153.515ZM96.9621 150.79L98.0785 150.651L98.125 151.023L97.0086 151.163L96.9621 150.79Z" fill="white"/>
<path d="M89.2615 147.885C89.7869 148.009 90.2522 148.015 90.3055 147.893C90.3599 147.772 89.9774 147.551 89.4452 147.408C88.9142 147.263 88.4399 147.267 88.3922 147.409C88.3442 147.552 88.7357 147.762 89.2615 147.885ZM85.7717 150.777C85.2846 150.946 84.9475 151.235 85.0064 151.395C85.0656 151.557 85.4939 151.519 85.972 151.338C86.4494 151.156 86.8037 150.911 86.7512 150.762C86.7002 150.615 86.2566 150.609 85.7717 150.777Z" fill="white"/>
<path d="M84.2751 151.971C84.3846 151.931 84.4566 151.784 84.4832 151.588C84.5078 151.601 84.5356 151.607 84.5635 151.605C84.7652 151.591 84.967 151.213 85.0176 150.767C85.0199 150.746 85.0199 150.728 85.0217 150.708C85.0287 150.724 85.0395 150.739 85.0532 150.75C85.2017 150.867 85.6101 150.671 85.9825 150.347C86.07 150.27 86.1466 150.194 86.2124 150.119C86.2679 150.221 86.3395 150.282 86.4216 150.277C86.4713 150.271 86.5177 150.25 86.5544 150.216C86.5706 150.239 86.5931 150.257 86.6192 150.268C86.8037 150.336 87.1401 150.03 87.3839 149.612C87.4453 149.506 87.4972 149.396 87.5391 149.281C87.7405 149.313 88.0401 149.079 88.2299 148.758C88.2854 148.664 88.3232 148.572 88.3472 148.487C88.4001 148.742 88.5306 148.946 88.6806 149.023C88.5148 149.07 88.3561 149.139 88.2092 149.229C87.8121 149.469 87.6149 149.782 87.7574 149.891C87.8995 150.001 88.3266 149.871 88.723 149.636C89.1197 149.398 89.3354 149.142 89.194 149.027C89.1509 148.992 89.0777 148.977 88.9889 148.976C89.0987 148.866 89.1561 148.656 89.1216 148.413C89.0729 148.067 88.8531 147.775 88.6315 147.771C88.4747 147.768 88.3649 147.918 88.3326 148.134C88.3079 148.092 88.269 148.06 88.2227 148.044C88.3322 147.985 88.3911 147.921 88.3705 147.859C88.3199 147.708 87.8462 147.611 87.3145 147.669C86.7951 147.724 86.4231 147.918 86.4617 148.08L86.4602 148.077C86.3151 147.957 85.8711 148.056 85.4815 148.334C85.1699 148.555 84.9906 148.818 85.0045 148.975C84.9385 148.986 84.873 148.999 84.808 149.015C84.2972 149.139 83.9421 149.4 84.0059 149.57C84.07 149.739 84.5219 149.742 85.0244 149.604C85.525 149.466 85.8936 149.249 85.8374 149.092C85.8186 149.039 85.7496 149 85.6502 148.974C85.7676 148.917 85.8899 148.847 86.0099 148.763C86.3406 148.531 86.5382 148.286 86.5007 148.143C86.6324 148.264 87.0494 148.298 87.5099 148.236C87.6019 148.223 87.6886 148.208 87.7701 148.191C87.6087 148.329 87.4868 148.507 87.4169 148.708C87.2646 148.707 87.0527 148.855 86.8675 149.094C86.8371 148.788 86.7182 148.569 86.5536 148.563C86.3365 148.555 86.1325 148.935 86.1014 149.418C86.0984 149.463 86.0987 149.506 86.0987 149.55C85.9075 149.597 85.6667 149.726 85.4462 149.92C85.2269 150.114 85.0802 150.327 85.0259 150.494C85.009 150.182 84.8957 149.958 84.73 149.955C84.5406 149.951 84.3557 150.243 84.289 150.635C84.1735 150.443 84.0276 150.335 83.8994 150.371C83.6942 150.43 83.6196 150.848 83.7287 151.298C83.8379 151.748 84.0801 152.045 84.2751 151.971Z" fill="white"/>
<path d="M91 81C93.3869 81 95.6761 81.9482 97.364 83.636C99.0518 85.3239 100 87.6131 100 90C100 93.074 98.324 95.59 96.558 97.395C95.6757 98.2871 94.7129 99.0958 93.682 99.811L93.256 100.101L93.056 100.234L92.679 100.474L92.343 100.679L91.927 100.921C91.6446 101.082 91.3251 101.167 91 101.167C90.6749 101.167 90.3554 101.082 90.073 100.921L89.657 100.679L89.137 100.359L88.945 100.234L88.535 99.961C87.4228 99.2085 86.3869 98.3491 85.442 97.395C83.676 95.589 82 93.074 82 90C82 87.6131 82.9482 85.3239 84.636 83.636C86.3239 81.9482 88.6131 81 91 81ZM91 87C90.606 87 90.2159 87.0776 89.8519 87.2284C89.488 87.3791 89.1573 87.6001 88.8787 87.8787C88.6001 88.1573 88.3791 88.488 88.2284 88.8519C88.0776 89.2159 88 89.606 88 90C88 90.394 88.0776 90.7841 88.2284 91.1481C88.3791 91.512 88.6001 91.8427 88.8787 92.1213C89.1573 92.3999 89.488 92.6209 89.8519 92.7716C90.2159 92.9224 90.606 93 91 93C91.7956 93 92.5587 92.6839 93.1213 92.1213C93.6839 91.5587 94 90.7956 94 90C94 89.2044 93.6839 88.4413 93.1213 87.8787C92.5587 87.3161 91.7956 87 91 87Z" fill="white"/>
</svg>
