<svg width="24" height="24" viewBox="0 0 24 24" fill="none" xmlns="http://www.w3.org/2000/svg">
<path d="M6 2.5C5.73478 2.5 5.48043 2.60536 5.29289 2.79289C5.10536 2.98043 5 3.23478 5 3.5V5.5C5 5.76522 5.10536 6.01957 5.29289 6.20711C5.48043 6.39464 5.73478 6.5 6 6.5C6.26522 6.5 6.51957 6.39464 6.70711 6.20711C6.89464 6.01957 7 5.76522 7 5.5V3.5C7 3.23478 6.89464 2.98043 6.70711 2.79289C6.51957 2.60536 6.26522 2.5 6 2.5Z" fill="black"/>
<path fill-rule="evenodd" clip-rule="evenodd" d="M13 21.5C14.4181 21.5002 15.7904 20.9982 16.8736 20.0829C17.9567 19.1676 18.6807 17.8982 18.917 16.5H19C20.0609 16.5 21.0783 16.0786 21.8284 15.3284C22.5786 14.5783 23 13.5609 23 12.5C23 11.4391 22.5786 10.4217 21.8284 9.67157C21.0783 8.92143 20.0609 8.5 19 8.5V7.5H1V15.5C1 17.0913 1.63214 18.6174 2.75736 19.7426C3.88258 20.8679 5.4087 21.5 7 21.5H13ZM3 9.5V15.5C3 16.5609 3.42143 17.5783 4.17157 18.3284C4.92172 19.0786 5.93913 19.5 7 19.5H13C14.0609 19.5 15.0783 19.0786 15.8284 18.3284C16.5786 17.5783 17 16.5609 17 15.5V9.5H3ZM21 12.5C21 13.0304 20.7893 13.5391 20.4142 13.9142C20.0391 14.2893 19.5304 14.5 19 14.5V10.5C19.5304 10.5 20.0391 10.7107 20.4142 11.0858C20.7893 11.4609 21 11.9696 21 12.5Z" fill="black"/>
<path d="M9 3.5C9 3.23478 9.10536 2.98043 9.29289 2.79289C9.48043 2.60536 9.73478 2.5 10 2.5C10.2652 2.5 10.5196 2.60536 10.7071 2.79289C10.8946 2.98043 11 3.23478 11 3.5V5.5C11 5.76522 10.8946 6.01957 10.7071 6.20711C10.5196 6.39464 10.2652 6.5 10 6.5C9.73478 6.5 9.48043 6.39464 9.29289 6.20711C9.10536 6.01957 9 5.76522 9 5.5V3.5ZM14 2.5C13.7348 2.5 13.4804 2.60536 13.2929 2.79289C13.1054 2.98043 13 3.23478 13 3.5V5.5C13 5.76522 13.1054 6.01957 13.2929 6.20711C13.4804 6.39464 13.7348 6.5 14 6.5C14.2652 6.5 14.5196 6.39464 14.7071 6.20711C14.8946 6.01957 15 5.76522 15 5.5V3.5C15 3.23478 14.8946 2.98043 14.7071 2.79289C14.5196 2.60536 14.2652 2.5 14 2.5Z" fill="black"/>
</svg>
