<svg width="24" height="24" viewBox="0 0 24 24" fill="none" xmlns="http://www.w3.org/2000/svg">
<path d="M2.4885 14.3865C2.1751 14.0731 1.92649 13.701 1.75688 13.2916C1.58727 12.8821 1.49997 12.4432 1.49997 12C1.49997 11.5568 1.58727 11.1179 1.75688 10.7084C1.92649 10.299 2.1751 9.9269 2.4885 9.6135L9.6135 2.4885C9.9269 2.1751 10.299 1.92649 10.7084 1.75688C11.1179 1.58727 11.5568 1.49997 12 1.49997C12.4432 1.49997 12.8821 1.58727 13.2916 1.75688C13.701 1.92649 14.0731 2.1751 14.3865 2.4885L21.5115 9.6135C21.8249 9.9269 22.0735 10.299 22.2431 10.7084C22.4127 11.1179 22.5 11.5568 22.5 12C22.5 12.4432 22.4127 12.8821 22.2431 13.2916C22.0735 13.701 21.8249 14.0731 21.5115 14.3865L14.3865 21.5115C14.0731 21.8249 13.701 22.0735 13.2916 22.2431C12.8821 22.4127 12.4432 22.5 12 22.5C11.5568 22.5 11.1179 22.4127 10.7084 22.2431C10.299 22.0735 9.9269 21.8249 9.6135 21.5115L2.4885 14.3865ZM14.031 6.969C13.9613 6.89932 13.8786 6.84404 13.7875 6.80633C13.6965 6.76862 13.5989 6.74921 13.5004 6.74921C13.4018 6.74921 13.3042 6.76862 13.2132 6.80633C13.1222 6.84404 13.0394 6.89932 12.9698 6.969C12.9001 7.03868 12.8448 7.12141 12.8071 7.21245C12.7694 7.3035 12.75 7.40108 12.75 7.49962C12.75 7.59817 12.7694 7.69575 12.8071 7.7868C12.8448 7.87784 12.9001 7.96057 12.9698 8.03025L13.9395 9H12C11.2044 9 10.4413 9.31607 9.87868 9.87868C9.31607 10.4413 9 11.2043 9 12V15.75C9 15.9489 9.07902 16.1397 9.21967 16.2803C9.36032 16.421 9.55109 16.5 9.75 16.5C9.94891 16.5 10.1397 16.421 10.2803 16.2803C10.421 16.1397 10.5 15.9489 10.5 15.75V12C10.5 11.6022 10.658 11.2206 10.9393 10.9393C11.2206 10.658 11.6022 10.5 12 10.5H13.9395L12.9698 11.4697C12.8331 11.6112 12.7575 11.8007 12.7592 11.9973C12.761 12.1939 12.8398 12.3821 12.9789 12.5211C13.1179 12.6602 13.3061 12.739 13.5027 12.7408C13.6993 12.7425 13.8888 12.6669 14.0303 12.5302L16.2803 10.2802C16.4209 10.1396 16.4998 9.94887 16.4998 9.75C16.4998 9.55113 16.4209 9.36039 16.2803 9.21975L14.031 6.969Z" fill="#8C25F2"/>
</svg>