<svg width="24" height="24" viewBox="0 0 24 24" fill="none" xmlns="http://www.w3.org/2000/svg">
<path d="M5.75 1.5L5.5 7M8.25 1.5L8.5 7M16.1045 1.5695C18.0245 2.9955 20.708 6.927 20.978 12.9985C21.006 13.627 20.7 14.2225 20.129 14.4875C19.7215 14.6765 19.1705 14.8915 18.4765 15.0745C18.3538 15.1053 18.2468 15.1802 18.1758 15.2849C18.1048 15.3895 18.0748 15.5166 18.0915 15.642L18.7045 19.931C18.8745 21.1225 18.408 22.19 17.247 22.5095C16.162 22.8085 15 22.0875 15 20.9615V2.253C15 1.611 15.589 1.187 16.1045 1.5695ZM10.9725 2.679C11.2025 4.038 11.5245 6.4125 11.4985 8.948C11.4855 10.2565 10.6115 11.429 9.2375 11.737C8.9535 11.8005 8.651 11.858 8.335 11.9025L9.257 19.8925C9.397 21.1085 8.644 22.301 7.431 22.465C7.2882 22.4855 7.14425 22.4972 7 22.5C6.8785 22.5 6.731 22.487 6.5685 22.465C5.356 22.301 4.603 21.1085 4.7435 19.8925L5.665 11.9025C5.36226 11.8595 5.06136 11.8045 4.763 11.7375C3.3885 11.429 2.5145 10.256 2.501 8.9475C2.4755 6.4125 2.7965 4.0385 3.0265 2.6795C3.1435 1.987 3.7495 1.5 4.4515 1.5H9.5475C10.25 1.5 10.8555 1.9865 10.9725 2.679Z" stroke="black" stroke-width="1.5" stroke-linecap="round" stroke-linejoin="round"/>
</svg>
