<svg width="18" height="21" viewBox="0 0 18 21" fill="none" xmlns="http://www.w3.org/2000/svg">
<path d="M3.4 3.76C4.89031 2.29949 6.8968 1.48613 8.98343 1.49667C11.0701 1.50721 13.0682 2.34079 14.5437 3.81628C16.0192 5.29177 16.8528 7.28994 16.8633 9.37657C16.8739 11.4632 16.0605 13.4697 14.6 14.96L10.414 19.146C10.0389 19.5209 9.53032 19.7316 9 19.7316C8.46967 19.7316 7.96105 19.5209 7.586 19.146L3.4 14.96C1.91488 13.4747 1.08057 11.4604 1.08057 9.36C1.08057 7.25962 1.91488 5.24526 3.4 3.76Z" stroke="black" stroke-width="1.5" stroke-linejoin="round"/>
<path d="M9 12.36C10.6569 12.36 12 11.0169 12 9.36C12 7.70315 10.6569 6.36 9 6.36C7.34315 6.36 6 7.70315 6 9.36C6 11.0169 7.34315 12.36 9 12.36Z" stroke="black" stroke-width="1.5" stroke-linecap="round" stroke-linejoin="round"/>
</svg>