<svg width="24" height="24" viewBox="0 0 24 24" fill="none" xmlns="http://www.w3.org/2000/svg">
<path d="M8.016 6.982C7.74999 6.982 7.49487 7.08768 7.30677 7.27577C7.11867 7.46387 7.013 7.71899 7.013 7.985C7.013 8.25101 7.11867 8.50613 7.30677 8.69423C7.49487 8.88233 7.74999 8.988 8.016 8.988H15.966C16.232 8.988 16.4871 8.88233 16.6752 8.69423C16.8633 8.50613 16.969 8.25101 16.969 7.985C16.969 7.71899 16.8633 7.46387 16.6752 7.27577C16.4871 7.08768 16.232 6.982 15.966 6.982H8.016ZM7.016 12C7.016 11.448 7.463 10.997 8.016 10.997H15.966C16.232 10.997 16.4871 11.1027 16.6752 11.2908C16.8633 11.4789 16.969 11.734 16.969 12C16.969 12.266 16.8633 12.5211 16.6752 12.7092C16.4871 12.8973 16.232 13.003 15.966 13.003H8.016C7.463 13.003 7.016 12.553 7.016 12ZM8.025 15.012C7.75886 15.012 7.50361 15.1177 7.31542 15.3059C7.12723 15.4941 7.0215 15.7494 7.0215 16.0155C7.0215 16.2816 7.12723 16.5369 7.31542 16.7251C7.50361 16.9133 7.75886 17.019 8.025 17.019H15.975C16.2411 17.019 16.4964 16.9133 16.6846 16.7251C16.8728 16.5369 16.9785 16.2816 16.9785 16.0155C16.9785 15.7494 16.8728 15.4941 16.6846 15.3059C16.4964 15.1177 16.2411 15.012 15.975 15.012H8.025Z" fill="white"/>
<path fill-rule="evenodd" clip-rule="evenodd" d="M3 6C3 5.20435 3.31607 4.44129 3.87868 3.87868C4.44129 3.31607 5.20435 3 6 3H18C18.7956 3 19.5587 3.31607 20.1213 3.87868C20.6839 4.44129 21 5.20435 21 6V18C21 18.7956 20.6839 19.5587 20.1213 20.1213C19.5587 20.6839 18.7956 21 18 21H6C5.20435 21 4.44129 20.6839 3.87868 20.1213C3.31607 19.5587 3 18.7956 3 18V6ZM6 5H18C18.2652 5 18.5196 5.10536 18.7071 5.29289C18.8946 5.48043 19 5.73478 19 6V18C19 18.2652 18.8946 18.5196 18.7071 18.7071C18.5196 18.8946 18.2652 19 18 19H6C5.73478 19 5.48043 18.8946 5.29289 18.7071C5.10536 18.5196 5 18.2652 5 18V6C5 5.73478 5.10536 5.48043 5.29289 5.29289C5.48043 5.10536 5.73478 5 6 5Z" fill="white"/>
</svg>
