<svg width="24" height="24" viewBox="0 0 24 24" fill="none" xmlns="http://www.w3.org/2000/svg">
<circle cx="12" cy="12" r="12" fill="#8C25F2"/>
<path d="M5 5H12C15.866 5 19 8.13401 19 12V12C19 15.866 15.866 19 12 19V19C8.13401 19 5 15.866 5 12V5Z" fill="white"/>
<path d="M13.3281 8.95625C13.3281 8.43125 12.9 8 12.3719 8C11.8438 8 11.4125 8.43125 11.4156 8.95625V11.4156H8.95625C8.43125 11.4156 8 11.8438 8 12.3719C8 12.8969 8.43125 13.3281 8.95625 13.3281H11.4156V15.7844C11.4156 16.3094 11.8438 16.7406 12.3719 16.7406C12.8969 16.7406 13.3281 16.3125 13.3281 15.7844V13.3281H15.7844C16.3094 13.3281 16.7406 12.9 16.7406 12.3719C16.7406 11.8469 16.3125 11.4156 15.7844 11.4156H13.3281V8.95625Z" fill="#9747FF"/>
</svg>
