<svg width="17" height="17" viewBox="0 0 17 17" fill="none" xmlns="http://www.w3.org/2000/svg">
<path d="M6.539 12.23C4.94033 12.23 3.58533 11.6747 2.474 10.564C1.36333 9.454 0.808001 8.09933 0.808001 6.5C0.808001 4.90066 1.36333 3.54566 2.474 2.435C3.58467 1.32433 4.93967 0.769331 6.539 0.769997C8.13833 0.770664 9.493 1.326 10.603 2.436C11.713 3.546 12.2683 4.90066 12.269 6.5C12.269 7.19466 12.146 7.867 11.9 8.517C11.654 9.167 11.3307 9.723 10.93 10.185L16.839 16.092C16.9323 16.1853 16.9823 16.3003 16.989 16.437C16.995 16.5723 16.945 16.6933 16.839 16.8C16.7323 16.9067 16.6143 16.96 16.485 16.96C16.3557 16.96 16.2377 16.9067 16.131 16.8L10.223 10.892C9.723 11.318 9.148 11.6477 8.498 11.881C7.848 12.1143 7.19467 12.231 6.538 12.231M6.538 11.231C7.86467 11.231 8.985 10.7743 9.899 9.861C10.8123 8.94766 11.269 7.82733 11.269 6.5C11.269 5.17266 10.8127 4.05266 9.9 3.14C8.98733 2.22733 7.86733 1.77066 6.54 1.77C5.21267 1.77 4.09233 2.22666 3.179 3.14C2.26567 4.05333 1.80867 5.17333 1.808 6.5C1.80733 7.82666 2.264 8.94666 3.178 9.86C4.092 10.7733 5.212 11.23 6.538 11.23" fill="black"/>
</svg>
